<svg width="372" height="165" viewBox="0 0 372 165" fill="none" xmlns="http://www.w3.org/2000/svg">
<path d="M50.8684 119.947C50.1321 118.93 49.5711 117.79 49.1854 116.528C48.8348 115.266 48.5719 114.074 48.3966 112.952C48.2212 111.795 48.1161 110.795 48.081 109.954C48.081 109.113 48.081 108.604 48.081 108.429C48.081 107.307 48.0284 105.974 47.9232 104.432C47.8531 102.854 47.6602 101.241 47.3447 99.5932C47.0291 97.9102 46.5733 96.2623 45.9773 94.6494C45.4163 93.0015 44.6274 91.5289 43.6106 90.2316C42.6289 88.9343 41.4017 87.9 39.9291 87.1286C38.4915 86.3222 36.756 85.919 34.7224 85.919C34.4419 85.919 34.1438 85.9365 33.8283 85.9716C33.5478 86.0067 33.2673 86.0242 32.9868 86.0242V118.79L18.4711 119.105C18.6815 117.878 18.8568 116.44 18.9971 114.793C19.1724 113.11 19.3126 111.339 19.4178 109.481C19.523 107.587 19.6107 105.624 19.6808 103.59C19.7509 101.557 19.8035 99.5581 19.8386 97.5947C19.8736 95.6312 19.8911 93.7378 19.8911 91.9146C19.9262 90.0563 19.9437 88.3909 19.9437 86.9183C19.9437 85.7963 19.9262 84.1484 19.8911 81.9745C19.8911 79.8007 19.8561 77.3639 19.786 74.6641C19.7509 71.9293 19.6983 69.0717 19.6282 66.0914C19.5931 63.0761 19.5405 60.201 19.4704 57.4662C19.4003 54.6963 19.3126 52.1894 19.2074 49.9454C19.1373 47.6664 19.0672 45.9133 18.9971 44.6861C20.9255 44.3004 22.9941 44.0199 25.203 43.8446C27.4119 43.6342 29.4631 43.4765 31.3564 43.3713C33.5653 43.231 35.7567 43.1609 37.9305 43.1609C41.4367 43.0207 44.7326 43.3187 47.818 44.055C50.9035 44.7562 53.6033 45.9659 55.9173 47.6839C58.2665 49.3669 60.1248 51.5583 61.4922 54.258C62.8947 56.9227 63.631 60.1134 63.7011 63.83C63.1401 66.4596 62.246 68.8964 61.0189 71.1404C60.4929 72.0871 59.8618 73.0688 59.1255 74.0856C58.4243 75.0673 57.5828 75.9965 56.6011 76.873C55.6544 77.7496 54.5675 78.556 53.3403 79.2923C52.1131 79.9935 50.7457 80.5545 49.238 80.9753C51.482 81.8518 53.3052 82.8861 54.7077 84.0783C56.1102 85.2353 57.2146 86.5501 58.0211 88.0227C58.8275 89.4603 59.406 91.0205 59.7566 92.7035C60.1423 94.3514 60.4053 96.1045 60.5455 97.9628C60.7208 99.786 60.8611 101.679 60.9663 103.643C61.0715 105.571 61.2643 107.535 61.5448 109.533C61.8253 111.041 62.1759 112.478 62.5967 113.846C62.9823 115.038 63.4557 116.248 64.0167 117.475C64.6127 118.667 65.3315 119.649 66.173 120.42L50.8684 119.947ZM50.3425 64.5137C50.3074 62.2697 49.8166 60.2536 48.8699 58.4655C48.4491 57.7292 47.9057 56.9929 47.2395 56.2566C46.6084 55.5203 45.802 54.8716 44.8202 54.3106C43.8736 53.7496 42.7165 53.2938 41.3491 52.9432C40.0167 52.5926 38.4565 52.4173 36.6683 52.4173C35.3009 52.4173 33.7932 52.6101 32.1453 52.9958L32.3557 76.7678C32.9868 76.873 33.6179 76.9607 34.249 77.0308C34.8802 77.0659 35.4587 77.0834 35.9846 77.0834C37.6676 77.0834 39.1577 76.9081 40.455 76.5575C41.7523 76.2068 42.8918 75.7335 43.8736 75.1374C44.8553 74.5414 45.6968 73.8752 46.398 73.1389C47.0993 72.4026 47.6953 71.6312 48.1862 70.8248C49.3082 68.9665 50.0269 66.8628 50.3425 64.5137ZM107.038 107.693C107.038 109.761 106.564 111.707 105.618 113.53C104.671 115.354 103.391 116.931 101.778 118.264C100.166 119.596 98.2722 120.648 96.0984 121.419C93.9246 122.191 91.6105 122.576 89.1561 122.576C87.5082 122.576 85.8428 122.348 84.1598 121.893C82.4768 121.437 80.864 120.683 79.3212 119.631C77.7785 118.579 76.3234 117.194 74.956 115.476C73.5886 113.758 72.3965 111.655 71.3797 109.165C70.398 106.676 69.6091 103.766 69.013 100.435C68.452 97.0687 68.1715 93.2119 68.1715 88.8642C68.1715 84.762 68.452 81.133 69.013 77.9775C69.6091 74.8219 70.398 72.0695 71.3797 69.7204C72.3965 67.3712 73.5711 65.4077 74.9034 63.83C76.2358 62.2171 77.6558 60.9198 79.1635 59.9381C80.7062 58.9213 82.284 58.2025 83.8968 57.7818C85.5447 57.361 87.1576 57.1506 88.7354 57.1506C91.0845 57.1506 93.311 57.5363 95.4147 58.3077C97.5184 59.044 99.3592 60.1484 100.937 61.621C102.515 63.0936 103.759 64.9169 104.671 67.0907C105.618 69.2295 106.091 71.7014 106.091 74.5063C106.091 77.0308 105.565 79.5903 104.513 82.1849C103.496 84.7444 101.971 87.1812 99.9377 89.4953C97.9041 91.7744 95.3796 93.8605 92.3643 95.7539C89.384 97.6122 85.9479 99.0848 82.0561 100.172C82.2664 102.346 82.5645 104.327 82.9501 106.115C83.3709 107.903 83.8793 109.428 84.4753 110.69C85.1065 111.953 85.8252 112.934 86.6317 113.636C87.4731 114.337 88.4374 114.687 89.5243 114.687C90.2255 114.652 90.8917 114.53 91.5228 114.319C92.0838 114.144 92.6448 113.863 93.2058 113.478C93.8018 113.092 94.2927 112.531 94.6784 111.795C93.7668 111.374 93.0655 110.831 92.5747 110.164C92.0838 109.498 91.7156 108.867 91.4702 108.271C91.1897 107.57 91.0319 106.833 90.9969 106.062C90.9969 104.379 91.33 103.012 91.9961 101.96C92.6623 100.908 93.4512 100.084 94.3628 99.488C95.2744 98.8919 96.2036 98.4887 97.1503 98.2784C98.0969 98.0329 98.8508 97.9102 99.4118 97.9102C100.008 97.9102 100.727 98.0329 101.568 98.2784C102.445 98.5238 103.286 98.9971 104.093 99.6984C104.899 100.4 105.583 101.399 106.144 102.696C106.74 103.958 107.038 105.624 107.038 107.693ZM94.0473 74.6115C94.0473 73.3493 93.9246 72.1572 93.6791 71.0352C93.4687 69.8781 93.1357 68.8789 92.6799 68.0374C92.2591 67.1959 91.7156 66.5297 91.0495 66.0389C90.4184 65.5129 89.6821 65.25 88.8406 65.25C87.403 65.25 86.2284 65.9161 85.3168 67.2485C84.4052 68.5458 83.6689 70.2814 83.1079 72.4552C82.5469 74.629 82.1613 77.136 81.9509 79.976C81.7405 82.816 81.6353 85.7788 81.6353 88.8642V92.7035C83.4235 91.7568 85.0714 90.6348 86.5791 89.3376C88.1218 88.0403 89.4366 86.6202 90.5235 85.0775C91.6455 83.4997 92.5045 81.8343 93.1006 80.0812C93.7317 78.3281 94.0473 76.5049 94.0473 74.6115ZM146.956 91.5465C146.956 93.6502 146.938 95.4909 146.903 97.0687C146.868 98.6114 146.816 100.031 146.745 101.329C146.71 102.591 146.64 103.801 146.535 104.958C146.465 106.08 146.377 107.289 146.272 108.587C146.167 109.849 146.044 111.286 145.904 112.899C145.764 114.477 145.606 116.335 145.431 118.474L133.597 118.579C134.088 112.934 134.439 107.517 134.649 102.328C134.894 97.1038 135.017 91.9321 135.017 86.8131C135.017 81.9395 134.561 78.3807 133.65 76.1367C132.773 73.8927 131.423 72.7708 129.6 72.7708C128.899 72.9811 128.215 73.4545 127.549 74.1908C126.953 74.8219 126.339 75.7861 125.708 77.0834C125.112 78.3807 124.586 80.1864 124.13 82.5005C124.06 84.2185 124.025 85.919 124.025 87.602C124.025 89.2499 124.025 90.8803 124.025 92.4931C124.025 94.3865 124.025 96.3149 124.025 98.2784C124.06 100.242 124.078 102.346 124.078 104.59C124.113 106.833 124.148 109.253 124.183 111.847C124.218 114.407 124.271 117.229 124.341 120.315L112.35 120.052C112.595 116.02 112.805 112.426 112.981 109.27C113.156 106.115 113.296 103.205 113.401 100.54C113.542 97.8751 113.629 95.3507 113.664 92.9665C113.735 90.5823 113.77 88.1279 113.77 85.6034C113.77 83.9205 113.752 82.2024 113.717 80.4493C113.717 78.6612 113.682 76.7503 113.612 74.7167C113.577 72.6831 113.524 70.5093 113.454 68.1952C113.384 65.846 113.314 63.2865 113.244 60.5166L125.182 60.727L124.867 65.6707C125.884 63.6722 126.953 62.1294 128.075 61.0425C129.197 59.9556 130.249 59.1667 131.231 58.6758C132.212 58.185 133.036 57.9045 133.702 57.8343C134.404 57.7642 134.842 57.7292 135.017 57.7292C136.069 57.7292 137.068 57.8694 138.015 58.1499C138.997 58.4304 139.908 58.9563 140.75 59.7277C141.626 60.4991 142.415 61.5685 143.117 62.9359C143.853 64.3033 144.484 66.0739 145.01 68.2478C145.957 65.5831 147.131 63.5319 148.534 62.0944C149.936 60.6568 151.304 59.6225 152.636 58.9914C154.003 58.3252 155.195 57.9571 156.212 57.8869C157.264 57.7818 157.878 57.7292 158.053 57.7292C160.297 57.7292 162.19 58.4129 163.733 59.7803C165.276 61.1477 166.503 63.2339 167.414 66.0389C168.326 68.8438 168.975 72.3675 169.36 76.61C169.781 80.8525 169.992 85.8314 169.992 91.5465C169.992 93.4398 169.904 95.6312 169.729 98.1206C169.553 100.61 169.325 103.187 169.045 105.852C168.764 108.481 168.466 111.094 168.151 113.688C167.835 116.283 167.555 118.597 167.309 120.63L155.476 120.21C156.072 116.458 156.528 112.899 156.843 109.533C157.194 106.132 157.457 103.117 157.632 100.487C157.808 97.4369 157.913 94.5969 157.948 91.9672C157.948 88.6363 157.86 85.7612 157.685 83.342C157.545 80.9227 157.264 78.9417 156.843 77.3989C156.423 75.8212 155.844 74.6641 155.108 73.9278C154.371 73.1564 153.442 72.7708 152.32 72.7708C151.584 72.9811 150.883 73.3843 150.217 73.9804C149.621 74.4713 148.989 75.2251 148.323 76.2419C147.692 77.2236 147.131 78.556 146.64 80.239C146.851 83.4647 146.956 87.2338 146.956 91.5465ZM191.818 45.212C191.818 46.334 191.607 47.4034 191.187 48.4202C190.766 49.4019 190.187 50.261 189.451 50.9973C188.715 51.7336 187.838 52.3296 186.821 52.7854C185.84 53.2062 184.788 53.4165 183.666 53.4165C182.544 53.4165 181.474 53.2062 180.458 52.7854C179.476 52.3296 178.617 51.7336 177.88 50.9973C177.144 50.261 176.548 49.4019 176.092 48.4202C175.672 47.4034 175.461 46.334 175.461 45.212C175.461 44.09 175.672 43.0382 176.092 42.0565C176.548 41.0397 177.144 40.1631 177.88 39.4268C178.617 38.6905 179.476 38.112 180.458 37.6912C181.474 37.2354 182.544 37.0075 183.666 37.0075C184.788 37.0075 185.84 37.2354 186.821 37.6912C187.838 38.112 188.715 38.6905 189.451 39.4268C190.187 40.1631 190.766 41.0397 191.187 42.0565C191.607 43.0382 191.818 44.09 191.818 45.212ZM191.818 61.1477C191.537 63.9176 191.292 66.9154 191.081 70.1411C190.906 73.3318 190.748 76.61 190.608 79.976C190.503 83.342 190.415 86.7254 190.345 90.1264C190.275 93.5275 190.222 96.7707 190.187 99.8562C190.152 102.942 190.117 105.834 190.082 108.534C190.082 111.199 190.082 113.495 190.082 115.424V121.367L178.143 121.787C178.214 119.368 178.249 117.019 178.249 114.74C178.249 112.461 178.249 110.182 178.249 107.903C178.249 103.941 178.214 100.084 178.143 96.3324C178.073 92.5457 177.951 88.759 177.775 84.9723C177.635 81.1856 177.442 77.3463 177.197 73.4545C176.951 69.5626 176.653 65.5305 176.303 61.3581L191.818 61.1477ZM212.434 60.727L212.119 65.0396C213.276 63.1112 214.503 61.6386 215.8 60.6218C217.132 59.605 218.36 58.8862 219.482 58.4655C220.604 58.0447 221.533 57.8168 222.269 57.7818C223.04 57.7467 223.461 57.7292 223.531 57.7292C226.126 57.7292 228.387 58.3252 230.316 59.5173C232.244 60.7094 233.839 62.445 235.102 64.724C236.364 66.968 237.293 69.7204 237.889 72.9811C238.52 76.2068 238.836 79.8708 238.836 83.9731C238.836 86.9884 238.783 90.0739 238.678 93.2294C238.608 96.35 238.433 99.4705 238.152 102.591C237.907 105.676 237.556 108.692 237.1 111.637C236.679 114.582 236.101 117.387 235.365 120.052L223.11 118.579C223.917 114.407 224.548 110.515 225.004 106.904C225.46 103.292 225.793 100.137 226.003 97.4369C226.249 94.2813 226.389 91.3887 226.424 88.759C226.424 85.4281 226.319 82.5355 226.108 80.0812C225.898 77.5918 225.512 75.5407 224.951 73.9278C224.425 72.2799 223.689 71.0527 222.742 70.2463C221.796 69.4399 220.586 69.0367 219.113 69.0367C218.132 69.247 217.15 69.9483 216.168 71.1404C215.327 72.1572 214.433 73.7876 213.486 76.0315C212.539 78.2404 211.715 81.3609 211.014 85.3931C210.909 88.1279 210.839 90.8452 210.804 93.545C210.804 96.2097 210.804 99.0497 210.804 102.065C210.804 104.625 210.804 107.377 210.804 110.322C210.804 113.267 210.839 116.598 210.909 120.315L198.97 120.052C199.075 116.476 199.146 112.689 199.181 108.692C199.251 104.66 199.286 100.189 199.286 95.2806C199.286 90.4069 199.251 85.1301 199.181 79.4501C199.111 73.77 198.97 67.4589 198.76 60.5166L212.434 60.727ZM286.275 40.0579C285.468 50.296 284.855 60.464 284.434 70.5619C284.013 80.6246 283.803 90.7751 283.803 101.013C283.803 107.85 283.908 114.705 284.118 121.577L272.127 121.787L272.495 111.374C271.093 114.004 269.655 116.02 268.183 117.422C266.71 118.825 265.36 119.877 264.133 120.578C262.695 121.384 261.275 121.858 259.873 121.998C258.085 121.998 256.279 121.489 254.456 120.473C252.633 119.456 250.985 117.703 249.512 115.213C248.04 112.724 246.83 109.411 245.883 105.273C244.937 101.101 244.463 95.8766 244.463 89.6005C244.463 85.4632 244.709 81.8168 245.2 78.6612C245.69 75.4705 246.357 72.7006 247.198 70.3515C248.04 68.0023 249.021 66.0389 250.143 64.4611C251.3 62.8482 252.527 61.5509 253.825 60.5692C255.157 59.5874 256.542 58.8862 257.98 58.4655C259.417 58.0447 260.837 57.8343 262.24 57.8343C263.186 57.9045 264.203 58.1324 265.29 58.5181C266.202 58.8687 267.236 59.3946 268.393 60.0958C269.585 60.762 270.795 61.7613 272.022 63.0936C271.812 55.3099 271.496 47.5612 271.075 39.8475L286.275 40.0579ZM272.706 93.808C272.706 87.041 272.6 80.2565 272.39 73.4545C272.004 72.8935 271.584 72.315 271.128 71.7189C270.707 71.1228 270.234 70.5794 269.708 70.0885C269.182 69.5626 268.621 69.1418 268.025 68.8263C267.429 68.5107 266.798 68.3529 266.132 68.3529C265.15 68.3529 264.151 68.7036 263.134 69.4048C262.152 70.071 261.258 71.2456 260.451 72.9285C259.645 74.5765 258.979 76.7854 258.453 79.5553C257.962 82.3252 257.717 85.8138 257.717 90.0213C257.717 93.9131 257.892 97.1388 258.243 99.6984C258.593 102.258 259.067 104.309 259.663 105.852C260.259 107.359 260.942 108.429 261.714 109.06C262.485 109.656 263.309 109.954 264.186 109.954C265.518 109.954 266.657 109.516 267.604 108.639C268.586 107.728 269.392 106.641 270.023 105.378C270.69 104.116 271.233 102.819 271.654 101.487C272.075 100.119 272.425 98.9621 272.706 98.0154V93.808ZM305.839 38.112C305.629 42.3895 305.436 46.3515 305.261 49.998C305.085 53.6444 304.928 57.0805 304.787 60.3062C304.682 63.5319 304.595 66.5998 304.524 69.51C304.454 72.4201 304.384 75.2952 304.314 78.1352C304.279 80.9753 304.244 83.8328 304.209 86.7079C304.209 89.583 304.209 92.5983 304.209 95.7539C304.209 99.2601 304.209 103.012 304.209 107.009C304.209 111.006 304.244 115.441 304.314 120.315L292.375 120.052C292.586 114.757 292.726 109.551 292.796 104.432C292.866 99.2776 292.901 94.0008 292.901 88.6013C292.901 84.9899 292.884 81.2908 292.849 77.5041C292.814 73.6824 292.761 69.7028 292.691 65.5655C292.621 61.3931 292.533 57.0104 292.428 52.4173C292.358 47.8241 292.27 42.9505 292.165 37.7964L305.839 38.112ZM352.857 62.2522C352.647 64.3208 352.472 66.4245 352.331 68.5633C352.191 70.667 352.051 72.7708 351.911 74.8745C351.806 76.9782 351.7 79.0293 351.595 81.0279C351.49 82.9913 351.402 84.8671 351.332 86.6553C351.157 90.8277 351.017 94.8598 350.911 98.7517C350.701 102.889 350.578 106.991 350.543 111.058C350.543 115.091 350.421 118.93 350.175 122.576C349.93 126.258 349.456 129.659 348.755 132.779C348.089 135.935 346.985 138.652 345.442 140.931C343.899 143.245 341.813 145.051 339.183 146.348C336.589 147.646 333.24 148.294 329.138 148.294C326.053 148.294 323.581 147.838 321.722 146.927C319.899 146.05 318.497 144.963 317.515 143.666C316.533 142.404 315.885 141.054 315.569 139.616C315.288 138.179 315.148 136.899 315.148 135.777C315.148 134.585 315.324 133.463 315.674 132.411C316.06 131.394 316.586 130.5 317.252 129.729C317.918 128.958 318.725 128.344 319.671 127.888C320.653 127.432 321.757 127.205 322.985 127.205C324.282 127.205 325.439 127.45 326.456 127.941C327.473 128.432 328.314 129.063 328.98 129.834C329.681 130.641 330.207 131.535 330.558 132.516C330.909 133.498 331.084 134.48 331.084 135.462C331.049 136.023 330.926 136.601 330.716 137.197C330.54 137.688 330.225 138.232 329.769 138.828C329.348 139.459 328.752 140.072 327.981 140.668C328.402 140.844 328.787 140.949 329.138 140.984C329.524 141.054 329.892 141.089 330.242 141.089C331.154 141.089 332.101 140.809 333.082 140.248C334.099 139.722 335.028 138.88 335.87 137.723C336.711 136.566 337.413 135.111 337.974 133.358C338.535 131.605 338.85 129.519 338.92 127.099C338.92 124.47 338.92 121.893 338.92 119.368C338.955 116.844 339.008 114.056 339.078 111.006C337.886 113.285 336.606 115.056 335.239 116.318C333.871 117.545 332.574 118.457 331.347 119.053C329.944 119.754 328.524 120.175 327.087 120.315C324.492 120.315 322.231 119.666 320.302 118.369C318.374 117.072 316.779 115.231 315.516 112.847C314.254 110.462 313.307 107.605 312.676 104.274C312.08 100.908 311.782 97.1564 311.782 93.0191C311.782 81.5538 312.571 70.6144 314.149 60.201L327.508 61.6736C327.227 62.8307 326.947 64.0929 326.666 65.4603C326.421 66.8278 326.193 68.2478 325.982 69.7204C325.772 71.193 325.579 72.6831 325.404 74.1908C325.264 75.6634 325.123 77.0834 324.983 78.4508C324.668 81.6765 324.405 84.9548 324.194 88.2857C324.194 91.6166 324.299 94.5267 324.51 97.0161C324.72 99.4705 325.088 101.522 325.614 103.17C326.175 104.782 326.929 105.992 327.876 106.798C328.822 107.605 330.032 108.008 331.505 108.008C332.557 107.833 333.573 107.096 334.555 105.799C334.976 105.238 335.414 104.537 335.87 103.695C336.326 102.854 336.781 101.82 337.237 100.592C337.693 99.3653 338.131 97.9277 338.552 96.2798C338.973 94.5969 339.359 92.6509 339.709 90.442C339.814 87.7072 339.884 85.2178 339.92 82.9738C339.99 80.6948 340.025 78.5209 340.025 76.4523C340.025 73.9629 339.972 71.5787 339.867 69.2996C339.762 66.9855 339.604 64.5663 339.394 62.0418L352.857 62.2522Z" fill="white"/>
</svg>
