<svg width="270" height="270" viewBox="0 0 270 270" fill="none" xmlns="http://www.w3.org/2000/svg">
<g clip-path="url(#clip0_2_42)">
<path d="M120.374 64.2265C125.626 83.8404 124.019 104.051 118.395 114.133C107.999 112.317 86.8399 90.8797 81.3446 72.5117C77.1175 58.3825 74.2471 30.7046 85.5848 21.0944C94.9494 23.784 108.153 29.7649 120.374 64.2265Z" fill="#2B6CB0"/>
<path d="M69.6056 99.8355C91.8103 105.402 106.202 115.96 112.291 125.767C105.662 133.978 76.6532 142.088 57.9246 137.986C43.518 134.831 17.9205 123.919 15.014 109.344C21.9074 102.458 45.8898 94.5143 69.6056 99.8355Z" fill="#2B6CB0"/>
<path d="M71.1258 156.991C89.0483 140.527 106.353 138.061 117.831 139.295C120.225 149.573 108.77 177.431 94.0141 189.672C82.6632 199.088 58.312 212.553 45.0333 205.877C43.8466 196.206 49.9365 175.071 71.1258 156.991Z" fill="#3182CE"/>
<path d="M121.773 199.803C122.151 171.303 124.831 159.929 132.06 150.929C142.006 154.455 159.288 179.126 161.637 198.154C163.445 212.79 161.652 240.559 148.868 248.14C140.084 243.924 121.736 221.651 121.773 199.803Z" fill="#63B3ED"/>
<path d="M174.733 186.652C159.162 173.603 153.754 162.322 152.723 153.106C160.366 149.439 184.207 153.571 196.376 163.012C205.737 170.274 220.537 187.025 217.613 198.601C210.236 201.216 188.934 198.552 174.733 186.652Z" fill="#63B3ED"/>
<path d="M210.495 154.365C192.52 147.45 185.939 143.088 181.928 136.398C186.493 130.92 206.176 125.745 218.786 128.712C228.486 130.995 245.665 138.635 247.476 148.512C242.747 153.092 228.873 158.42 210.495 154.365Z" fill="#90CDF4"/>
<path d="M226.45 118.371C212.351 116.337 206.887 114.271 202.896 110.105C205.288 105.404 218.635 98.4392 228.217 98.508C235.588 98.561 249.233 101.25 252.162 108.076C249.503 112.156 240.372 118.278 226.45 118.371Z" fill="#90CDF4"/>
</g>
<defs>
<clipPath id="clip0_2_42">
<rect width="270" height="270" fill="white"/>
</clipPath>
</defs>
</svg>
