<svg width="367" height="367" viewBox="0 0 367 367" fill="none" xmlns="http://www.w3.org/2000/svg">
<g clip-path="url(#clip0_2_7)">
<path d="M218.068 310.222C215.563 306.761 213.653 302.883 212.341 298.588C211.148 294.292 210.253 290.235 209.656 286.417C209.059 282.479 208.701 279.078 208.582 276.214C208.582 273.351 208.582 271.62 208.582 271.024C208.582 267.205 208.403 262.671 208.045 257.421C207.806 252.051 207.15 246.562 206.076 240.954C205.002 235.227 203.451 229.618 201.423 224.13C199.513 218.521 196.829 213.51 193.368 209.095C190.027 204.68 185.851 201.16 180.839 198.535C175.947 195.79 170.04 194.418 163.12 194.418C162.165 194.418 161.151 194.478 160.077 194.597C159.122 194.716 158.168 194.776 157.213 194.776V306.284L107.813 307.358C108.529 303.182 109.126 298.289 109.603 292.681C110.2 286.954 110.677 280.928 111.035 274.604C111.393 268.16 111.691 261.478 111.93 254.557C112.168 247.636 112.347 240.835 112.467 234.153C112.586 227.471 112.646 221.027 112.646 214.822C112.765 208.498 112.825 202.83 112.825 197.819C112.825 194 112.765 188.392 112.646 180.994C112.646 173.596 112.526 165.303 112.288 156.115C112.168 146.808 111.989 137.083 111.751 126.94C111.631 116.678 111.452 106.894 111.214 97.5866C110.975 88.16 110.677 79.6283 110.319 71.9916C110.08 64.2356 109.842 58.2694 109.603 54.093C116.166 52.7805 123.206 51.8259 130.723 51.2293C138.241 50.5133 145.221 49.9764 151.665 49.6184C159.182 49.1411 166.64 48.9024 174.038 48.9024C185.97 48.4252 197.187 49.4394 207.687 51.9452C218.188 54.3317 227.376 58.4484 235.251 64.2952C243.246 70.0228 249.57 77.4805 254.223 86.6685C258.996 95.7371 261.502 106.596 261.741 119.244C259.832 128.193 256.789 136.486 252.613 144.123C250.823 147.345 248.675 150.686 246.169 154.146C243.783 157.487 240.919 160.649 237.578 163.632C234.356 166.615 230.657 169.36 226.481 171.866C222.304 174.252 217.651 176.161 212.52 177.593C220.156 180.576 226.361 184.096 231.134 188.153C235.907 192.091 239.666 196.566 242.41 201.577C245.155 206.47 247.124 211.78 248.317 217.507C249.629 223.115 250.524 229.082 251.002 235.406C251.598 241.611 252.076 248.054 252.434 254.736C252.792 261.299 253.448 267.981 254.402 274.783C255.357 279.913 256.55 284.806 257.982 289.459C259.295 293.516 260.906 297.633 262.815 301.809C264.843 305.866 267.289 309.207 270.153 311.833L218.068 310.222ZM216.278 121.571C216.159 113.934 214.489 107.073 211.267 100.987C209.835 98.4815 207.985 95.9757 205.718 93.4699C203.57 90.9641 200.826 88.7566 197.485 86.8474C194.263 84.9383 190.326 83.387 185.672 82.1938C181.138 81.0006 175.828 80.404 169.742 80.404C165.089 80.404 159.958 81.0602 154.349 82.3728L155.065 163.274C157.213 163.632 159.361 163.931 161.509 164.169C163.657 164.289 165.625 164.348 167.415 164.348C173.143 164.348 178.214 163.752 182.629 162.558C187.044 161.365 190.922 159.754 194.263 157.726C197.604 155.697 200.468 153.43 202.855 150.924C205.241 148.419 207.27 145.793 208.94 143.049C212.758 136.725 215.205 129.565 216.278 121.571Z" fill="#2E2E2E"/>
</g>
<defs>
<clipPath id="clip0_2_7">
<rect width="367" height="367" fill="white"/>
</clipPath>
</defs>
</svg>
