<svg width="372" height="165" viewBox="0 0 372 165" fill="none" xmlns="http://www.w3.org/2000/svg">
<path d="M51.8684 120.947C51.1321 119.93 50.5711 118.79 50.1854 117.528C49.8348 116.266 49.5719 115.074 49.3966 113.952C49.2212 112.795 49.1161 111.795 49.081 110.954C49.081 110.113 49.081 109.604 49.081 109.429C49.081 108.307 49.0284 106.974 48.9232 105.432C48.8531 103.854 48.6602 102.241 48.3447 100.593C48.0291 98.9102 47.5733 97.2623 46.9773 95.6494C46.4163 94.0015 45.6274 92.5289 44.6106 91.2316C43.6289 89.9343 42.4017 88.9 40.9291 88.1286C39.4915 87.3222 37.756 86.919 35.7224 86.919C35.4419 86.919 35.1438 86.9365 34.8283 86.9716C34.5478 87.0067 34.2673 87.0242 33.9868 87.0242V119.79L19.4711 120.105C19.6815 118.878 19.8568 117.44 19.9971 115.793C20.1724 114.11 20.3126 112.339 20.4178 110.481C20.523 108.587 20.6107 106.624 20.6808 104.59C20.7509 102.557 20.8035 100.558 20.8386 98.5947C20.8736 96.6312 20.8911 94.7378 20.8911 92.9146C20.9262 91.0563 20.9437 89.3909 20.9437 87.9183C20.9437 86.7963 20.9262 85.1484 20.8911 82.9745C20.8911 80.8007 20.8561 78.3639 20.786 75.6641C20.7509 72.9293 20.6983 70.0717 20.6282 67.0914C20.5931 64.0761 20.5405 61.201 20.4704 58.4662C20.4003 55.6963 20.3126 53.1894 20.2074 50.9454C20.1373 48.6664 20.0672 46.9133 19.9971 45.6861C21.9255 45.3004 23.9941 45.0199 26.203 44.8446C28.4119 44.6342 30.4631 44.4765 32.3564 44.3713C34.5653 44.231 36.7567 44.1609 38.9305 44.1609C42.4367 44.0207 45.7326 44.3187 48.818 45.055C51.9035 45.7562 54.6033 46.9659 56.9173 48.6839C59.2665 50.3669 61.1248 52.5583 62.4922 55.258C63.8947 57.9227 64.631 61.1134 64.7011 64.83C64.1401 67.4596 63.246 69.8964 62.0189 72.1404C61.4929 73.0871 60.8618 74.0688 60.1255 75.0856C59.4243 76.0673 58.5828 76.9965 57.6011 77.873C56.6544 78.7496 55.5675 79.556 54.3403 80.2923C53.1131 80.9935 51.7457 81.5545 50.238 81.9753C52.482 82.8518 54.3052 83.8861 55.7077 85.0783C57.1102 86.2353 58.2146 87.5501 59.0211 89.0227C59.8275 90.4603 60.406 92.0205 60.7566 93.7035C61.1423 95.3514 61.4053 97.1045 61.5455 98.9628C61.7208 100.786 61.8611 102.679 61.9663 104.643C62.0715 106.571 62.2643 108.535 62.5448 110.533C62.8253 112.041 63.1759 113.478 63.5967 114.846C63.9823 116.038 64.4557 117.248 65.0167 118.475C65.6127 119.667 66.3315 120.649 67.173 121.42L51.8684 120.947ZM51.3425 65.5137C51.3074 63.2697 50.8166 61.2536 49.8699 59.4655C49.4491 58.7292 48.9057 57.9929 48.2395 57.2566C47.6084 56.5203 46.802 55.8716 45.8202 55.3106C44.8736 54.7496 43.7165 54.2938 42.3491 53.9432C41.0167 53.5926 39.4565 53.4173 37.6683 53.4173C36.3009 53.4173 34.7932 53.6101 33.1453 53.9958L33.3557 77.7678C33.9868 77.873 34.6179 77.9607 35.249 78.0308C35.8802 78.0659 36.4587 78.0834 36.9846 78.0834C38.6676 78.0834 40.1577 77.9081 41.455 77.5575C42.7523 77.2068 43.8918 76.7335 44.8736 76.1374C45.8553 75.5414 46.6968 74.8752 47.398 74.1389C48.0993 73.4026 48.6953 72.6312 49.1862 71.8248C50.3082 69.9665 51.0269 67.8628 51.3425 65.5137ZM108.038 108.693C108.038 110.761 107.564 112.707 106.618 114.53C105.671 116.354 104.391 117.931 102.778 119.264C101.166 120.596 99.2722 121.648 97.0984 122.419C94.9246 123.191 92.6105 123.576 90.1561 123.576C88.5082 123.576 86.8428 123.348 85.1598 122.893C83.4768 122.437 81.864 121.683 80.3212 120.631C78.7785 119.579 77.3234 118.194 75.956 116.476C74.5886 114.758 73.3965 112.655 72.3797 110.165C71.398 107.676 70.6091 104.766 70.013 101.435C69.452 98.0687 69.1715 94.2119 69.1715 89.8642C69.1715 85.762 69.452 82.133 70.013 78.9775C70.6091 75.8219 71.398 73.0695 72.3797 70.7204C73.3965 68.3712 74.5711 66.4077 75.9034 64.83C77.2358 63.2171 78.6558 61.9198 80.1635 60.9381C81.7062 59.9213 83.284 59.2025 84.8968 58.7818C86.5447 58.361 88.1576 58.1506 89.7354 58.1506C92.0845 58.1506 94.311 58.5363 96.4147 59.3077C98.5184 60.044 100.359 61.1484 101.937 62.621C103.515 64.0936 104.759 65.9169 105.671 68.0907C106.618 70.2295 107.091 72.7014 107.091 75.5063C107.091 78.0308 106.565 80.5903 105.513 83.1849C104.496 85.7444 102.971 88.1812 100.938 90.4953C98.9041 92.7744 96.3796 94.8605 93.3643 96.7539C90.384 98.6122 86.9479 100.085 83.0561 101.172C83.2664 103.346 83.5645 105.327 83.9501 107.115C84.3709 108.903 84.8793 110.428 85.4753 111.69C86.1065 112.953 86.8252 113.934 87.6317 114.636C88.4731 115.337 89.4374 115.687 90.5243 115.687C91.2255 115.652 91.8917 115.53 92.5228 115.319C93.0838 115.144 93.6448 114.863 94.2058 114.478C94.8018 114.092 95.2927 113.531 95.6784 112.795C94.7668 112.374 94.0655 111.831 93.5747 111.164C93.0838 110.498 92.7156 109.867 92.4702 109.271C92.1897 108.57 92.0319 107.833 91.9969 107.062C91.9969 105.379 92.33 104.012 92.9961 102.96C93.6623 101.908 94.4512 101.084 95.3628 100.488C96.2744 99.8919 97.2036 99.4887 98.1503 99.2784C99.0969 99.0329 99.8508 98.9102 100.412 98.9102C101.008 98.9102 101.727 99.0329 102.568 99.2784C103.445 99.5238 104.286 99.9971 105.093 100.698C105.899 101.4 106.583 102.399 107.144 103.696C107.74 104.958 108.038 106.624 108.038 108.693ZM95.0473 75.6115C95.0473 74.3493 94.9246 73.1572 94.6791 72.0352C94.4687 70.8781 94.1357 69.8789 93.6799 69.0374C93.2591 68.1959 92.7156 67.5297 92.0495 67.0389C91.4184 66.5129 90.6821 66.25 89.8406 66.25C88.403 66.25 87.2284 66.9161 86.3168 68.2485C85.4052 69.5458 84.6689 71.2814 84.1079 73.4552C83.5469 75.629 83.1613 78.136 82.9509 80.976C82.7405 83.816 82.6353 86.7788 82.6353 89.8642V93.7035C84.4235 92.7568 86.0714 91.6348 87.5791 90.3376C89.1218 89.0403 90.4366 87.6202 91.5235 86.0775C92.6455 84.4997 93.5045 82.8343 94.1006 81.0812C94.7317 79.3281 95.0473 77.5049 95.0473 75.6115ZM147.956 92.5465C147.956 94.6502 147.938 96.4909 147.903 98.0687C147.868 99.6114 147.816 101.031 147.745 102.329C147.71 103.591 147.64 104.801 147.535 105.958C147.465 107.08 147.377 108.289 147.272 109.587C147.167 110.849 147.044 112.286 146.904 113.899C146.764 115.477 146.606 117.335 146.431 119.474L134.597 119.579C135.088 113.934 135.439 108.517 135.649 103.328C135.894 98.1038 136.017 92.9321 136.017 87.8131C136.017 82.9395 135.561 79.3807 134.65 77.1367C133.773 74.8927 132.423 73.7708 130.6 73.7708C129.899 73.9811 129.215 74.4545 128.549 75.1908C127.953 75.8219 127.339 76.7861 126.708 78.0834C126.112 79.3807 125.586 81.1864 125.13 83.5005C125.06 85.2185 125.025 86.919 125.025 88.602C125.025 90.2499 125.025 91.8803 125.025 93.4931C125.025 95.3865 125.025 97.3149 125.025 99.2784C125.06 101.242 125.078 103.346 125.078 105.59C125.113 107.833 125.148 110.253 125.183 112.847C125.218 115.407 125.271 118.229 125.341 121.315L113.35 121.052C113.595 117.02 113.805 113.426 113.981 110.27C114.156 107.115 114.296 104.205 114.401 101.54C114.542 98.8751 114.629 96.3507 114.664 93.9665C114.735 91.5823 114.77 89.1279 114.77 86.6034C114.77 84.9205 114.752 83.2024 114.717 81.4493C114.717 79.6612 114.682 77.7503 114.612 75.7167C114.577 73.6831 114.524 71.5093 114.454 69.1952C114.384 66.846 114.314 64.2865 114.244 61.5166L126.182 61.727L125.867 66.6707C126.884 64.6722 127.953 63.1294 129.075 62.0425C130.197 60.9556 131.249 60.1667 132.231 59.6758C133.212 59.185 134.036 58.9045 134.702 58.8343C135.404 58.7642 135.842 58.7292 136.017 58.7292C137.069 58.7292 138.068 58.8694 139.015 59.1499C139.997 59.4304 140.908 59.9563 141.75 60.7277C142.626 61.4991 143.415 62.5685 144.117 63.9359C144.853 65.3033 145.484 67.0739 146.01 69.2478C146.957 66.5831 148.131 64.5319 149.534 63.0944C150.936 61.6568 152.304 60.6225 153.636 59.9914C155.003 59.3252 156.195 58.9571 157.212 58.8869C158.264 58.7818 158.878 58.7292 159.053 58.7292C161.297 58.7292 163.19 59.4129 164.733 60.7803C166.276 62.1477 167.503 64.2339 168.414 67.0389C169.326 69.8438 169.975 73.3675 170.36 77.61C170.781 81.8525 170.992 86.8314 170.992 92.5465C170.992 94.4398 170.904 96.6312 170.729 99.1206C170.553 101.61 170.325 104.187 170.045 106.852C169.764 109.481 169.466 112.094 169.151 114.688C168.835 117.283 168.555 119.597 168.309 121.63L156.476 121.21C157.072 117.458 157.528 113.899 157.843 110.533C158.194 107.132 158.457 104.117 158.632 101.487C158.808 98.4369 158.913 95.5969 158.948 92.9672C158.948 89.6363 158.86 86.7612 158.685 84.342C158.545 81.9227 158.264 79.9417 157.843 78.3989C157.423 76.8212 156.844 75.6641 156.108 74.9278C155.371 74.1564 154.442 73.7708 153.32 73.7708C152.584 73.9811 151.883 74.3843 151.217 74.9804C150.621 75.4713 149.989 76.2251 149.323 77.2419C148.692 78.2236 148.131 79.556 147.64 81.239C147.851 84.4647 147.956 88.2338 147.956 92.5465ZM192.818 46.212C192.818 47.334 192.607 48.4034 192.187 49.4202C191.766 50.4019 191.187 51.261 190.451 51.9973C189.715 52.7336 188.838 53.3296 187.821 53.7854C186.84 54.2062 185.788 54.4165 184.666 54.4165C183.544 54.4165 182.474 54.2062 181.458 53.7854C180.476 53.3296 179.617 52.7336 178.88 51.9973C178.144 51.261 177.548 50.4019 177.092 49.4202C176.672 48.4034 176.461 47.334 176.461 46.212C176.461 45.09 176.672 44.0382 177.092 43.0565C177.548 42.0397 178.144 41.1631 178.88 40.4268C179.617 39.6905 180.476 39.112 181.458 38.6912C182.474 38.2354 183.544 38.0075 184.666 38.0075C185.788 38.0075 186.84 38.2354 187.821 38.6912C188.838 39.112 189.715 39.6905 190.451 40.4268C191.187 41.1631 191.766 42.0397 192.187 43.0565C192.607 44.0382 192.818 45.09 192.818 46.212ZM192.818 62.1477C192.537 64.9176 192.292 67.9154 192.081 71.1411C191.906 74.3318 191.748 77.61 191.608 80.976C191.503 84.342 191.415 87.7254 191.345 91.1264C191.275 94.5275 191.222 97.7707 191.187 100.856C191.152 103.942 191.117 106.834 191.082 109.534C191.082 112.199 191.082 114.495 191.082 116.424V122.367L179.143 122.787C179.214 120.368 179.249 118.019 179.249 115.74C179.249 113.461 179.249 111.182 179.249 108.903C179.249 104.941 179.214 101.084 179.143 97.3324C179.073 93.5457 178.951 89.759 178.775 85.9723C178.635 82.1856 178.442 78.3463 178.197 74.4545C177.951 70.5626 177.653 66.5305 177.303 62.3581L192.818 62.1477ZM213.434 61.727L213.119 66.0396C214.276 64.1112 215.503 62.6386 216.8 61.6218C218.132 60.605 219.36 59.8862 220.482 59.4655C221.604 59.0447 222.533 58.8168 223.269 58.7818C224.04 58.7467 224.461 58.7292 224.531 58.7292C227.126 58.7292 229.387 59.3252 231.316 60.5173C233.244 61.7094 234.839 63.445 236.102 65.724C237.364 67.968 238.293 70.7204 238.889 73.9811C239.52 77.2068 239.836 80.8708 239.836 84.9731C239.836 87.9884 239.783 91.0739 239.678 94.2294C239.608 97.35 239.433 100.47 239.152 103.591C238.907 106.676 238.556 109.692 238.1 112.637C237.679 115.582 237.101 118.387 236.365 121.052L224.11 119.579C224.917 115.407 225.548 111.515 226.004 107.904C226.46 104.292 226.793 101.137 227.003 98.4369C227.249 95.2813 227.389 92.3887 227.424 89.759C227.424 86.4281 227.319 83.5355 227.108 81.0812C226.898 78.5918 226.512 76.5407 225.951 74.9278C225.425 73.2799 224.689 72.0527 223.742 71.2463C222.796 70.4399 221.586 70.0367 220.113 70.0367C219.132 70.247 218.15 70.9483 217.168 72.1404C216.327 73.1572 215.433 74.7876 214.486 77.0315C213.539 79.2404 212.715 82.3609 212.014 86.3931C211.909 89.1279 211.839 91.8452 211.804 94.545C211.804 97.2097 211.804 100.05 211.804 103.065C211.804 105.625 211.804 108.377 211.804 111.322C211.804 114.267 211.839 117.598 211.909 121.315L199.97 121.052C200.075 117.476 200.146 113.689 200.181 109.692C200.251 105.66 200.286 101.189 200.286 96.2806C200.286 91.4069 200.251 86.1301 200.181 80.4501C200.111 74.77 199.97 68.4589 199.76 61.5166L213.434 61.727ZM287.275 41.0579C286.468 51.296 285.855 61.464 285.434 71.5619C285.013 81.6246 284.803 91.7751 284.803 102.013C284.803 108.85 284.908 115.705 285.118 122.577L273.127 122.787L273.495 112.374C272.093 115.004 270.655 117.02 269.183 118.422C267.71 119.825 266.36 120.877 265.133 121.578C263.695 122.384 262.275 122.858 260.873 122.998C259.085 122.998 257.279 122.489 255.456 121.473C253.633 120.456 251.985 118.703 250.512 116.213C249.04 113.724 247.83 110.411 246.883 106.273C245.937 102.101 245.463 96.8766 245.463 90.6005C245.463 86.4632 245.709 82.8168 246.2 79.6612C246.69 76.4705 247.357 73.7006 248.198 71.3515C249.04 69.0023 250.021 67.0389 251.143 65.4611C252.3 63.8482 253.527 62.5509 254.825 61.5692C256.157 60.5874 257.542 59.8862 258.98 59.4655C260.417 59.0447 261.837 58.8343 263.24 58.8343C264.186 58.9045 265.203 59.1324 266.29 59.5181C267.202 59.8687 268.236 60.3946 269.393 61.0958C270.585 61.762 271.795 62.7613 273.022 64.0936C272.812 56.3099 272.496 48.5612 272.075 40.8475L287.275 41.0579ZM273.706 94.808C273.706 88.041 273.6 81.2565 273.39 74.4545C273.004 73.8935 272.584 73.315 272.128 72.7189C271.707 72.1228 271.234 71.5794 270.708 71.0885C270.182 70.5626 269.621 70.1418 269.025 69.8263C268.429 69.5107 267.798 69.3529 267.132 69.3529C266.15 69.3529 265.151 69.7036 264.134 70.4048C263.152 71.071 262.258 72.2456 261.451 73.9285C260.645 75.5765 259.979 77.7854 259.453 80.5553C258.962 83.3252 258.717 86.8138 258.717 91.0213C258.717 94.9131 258.892 98.1388 259.243 100.698C259.593 103.258 260.067 105.309 260.663 106.852C261.259 108.359 261.942 109.429 262.714 110.06C263.485 110.656 264.309 110.954 265.186 110.954C266.518 110.954 267.657 110.516 268.604 109.639C269.586 108.728 270.392 107.641 271.023 106.378C271.69 105.116 272.233 103.819 272.654 102.487C273.075 101.119 273.425 99.9621 273.706 99.0154V94.808ZM306.839 39.112C306.629 43.3895 306.436 47.3515 306.261 50.998C306.085 54.6444 305.928 58.0805 305.787 61.3062C305.682 64.5319 305.595 67.5998 305.524 70.51C305.454 73.4201 305.384 76.2952 305.314 79.1352C305.279 81.9753 305.244 84.8328 305.209 87.7079C305.209 90.583 305.209 93.5983 305.209 96.7539C305.209 100.26 305.209 104.012 305.209 108.009C305.209 112.006 305.244 116.441 305.314 121.315L293.375 121.052C293.586 115.757 293.726 110.551 293.796 105.432C293.866 100.278 293.901 95.0008 293.901 89.6013C293.901 85.9899 293.884 82.2908 293.849 78.5041C293.814 74.6824 293.761 70.7028 293.691 66.5655C293.621 62.3931 293.533 58.0104 293.428 53.4173C293.358 48.8241 293.27 43.9505 293.165 38.7964L306.839 39.112ZM353.857 63.2522C353.647 65.3208 353.472 67.4245 353.331 69.5633C353.191 71.667 353.051 73.7708 352.911 75.8745C352.806 77.9782 352.7 80.0293 352.595 82.0279C352.49 83.9913 352.402 85.8671 352.332 87.6553C352.157 91.8277 352.017 95.8598 351.911 99.7517C351.701 103.889 351.578 107.991 351.543 112.058C351.543 116.091 351.421 119.93 351.175 123.576C350.93 127.258 350.456 130.659 349.755 133.779C349.089 136.935 347.985 139.652 346.442 141.931C344.899 144.245 342.813 146.051 340.183 147.348C337.589 148.646 334.24 149.294 330.138 149.294C327.053 149.294 324.581 148.838 322.722 147.927C320.899 147.05 319.497 145.963 318.515 144.666C317.533 143.404 316.885 142.054 316.569 140.616C316.288 139.179 316.148 137.899 316.148 136.777C316.148 135.585 316.324 134.463 316.674 133.411C317.06 132.394 317.586 131.5 318.252 130.729C318.918 129.958 319.725 129.344 320.671 128.888C321.653 128.432 322.757 128.205 323.985 128.205C325.282 128.205 326.439 128.45 327.456 128.941C328.473 129.432 329.314 130.063 329.98 130.834C330.681 131.641 331.207 132.535 331.558 133.516C331.909 134.498 332.084 135.48 332.084 136.462C332.049 137.023 331.926 137.601 331.716 138.197C331.54 138.688 331.225 139.232 330.769 139.828C330.348 140.459 329.752 141.072 328.981 141.668C329.402 141.844 329.787 141.949 330.138 141.984C330.524 142.054 330.892 142.089 331.242 142.089C332.154 142.089 333.101 141.809 334.082 141.248C335.099 140.722 336.028 139.88 336.87 138.723C337.711 137.566 338.413 136.111 338.974 134.358C339.535 132.605 339.85 130.519 339.92 128.099C339.92 125.47 339.92 122.893 339.92 120.368C339.955 117.844 340.008 115.056 340.078 112.006C338.886 114.285 337.606 116.056 336.239 117.318C334.871 118.545 333.574 119.457 332.347 120.053C330.944 120.754 329.524 121.175 328.087 121.315C325.492 121.315 323.231 120.666 321.302 119.369C319.374 118.072 317.779 116.231 316.516 113.847C315.254 111.462 314.307 108.605 313.676 105.274C313.08 101.908 312.782 98.1564 312.782 94.0191C312.782 82.5538 313.571 71.6144 315.149 61.201L328.508 62.6736C328.227 63.8307 327.947 65.0929 327.666 66.4603C327.421 67.8278 327.193 69.2478 326.982 70.7204C326.772 72.193 326.579 73.6831 326.404 75.1908C326.264 76.6634 326.123 78.0834 325.983 79.4508C325.668 82.6765 325.405 85.9548 325.194 89.2857C325.194 92.6166 325.299 95.5267 325.51 98.0161C325.72 100.47 326.088 102.522 326.614 104.17C327.175 105.782 327.929 106.992 328.876 107.798C329.822 108.605 331.032 109.008 332.505 109.008C333.557 108.833 334.573 108.096 335.555 106.799C335.976 106.238 336.414 105.537 336.87 104.695C337.326 103.854 337.781 102.82 338.237 101.592C338.693 100.365 339.131 98.9277 339.552 97.2798C339.973 95.5969 340.359 93.6509 340.709 91.442C340.814 88.7072 340.884 86.2178 340.92 83.9738C340.99 81.6948 341.025 79.5209 341.025 77.4523C341.025 74.9629 340.972 72.5787 340.867 70.2996C340.762 67.9855 340.604 65.5663 340.394 63.0418L353.857 63.2522Z" fill="#2E2E2E"/>
</svg>
