<svg width="367" height="367" viewBox="0 0 367 367" fill="none" xmlns="http://www.w3.org/2000/svg">
<g clip-path="url(#clip0_3_9)">
<path d="M219.068 310.222C216.563 306.761 214.653 302.883 213.341 298.588C212.148 294.292 211.253 290.235 210.656 286.417C210.059 282.479 209.701 279.078 209.582 276.214C209.582 273.351 209.582 271.62 209.582 271.024C209.582 267.205 209.403 262.671 209.045 257.421C208.806 252.051 208.15 246.562 207.076 240.954C206.002 235.227 204.451 229.618 202.423 224.13C200.513 218.521 197.829 213.51 194.368 209.095C191.027 204.68 186.851 201.16 181.839 198.535C176.947 195.79 171.04 194.418 164.12 194.418C163.165 194.418 162.151 194.478 161.077 194.597C160.122 194.716 159.168 194.776 158.213 194.776V306.284L108.813 307.358C109.529 303.182 110.126 298.289 110.603 292.681C111.2 286.954 111.677 280.928 112.035 274.604C112.393 268.16 112.691 261.478 112.93 254.557C113.168 247.636 113.347 240.835 113.467 234.153C113.586 227.471 113.646 221.027 113.646 214.822C113.765 208.498 113.825 202.83 113.825 197.819C113.825 194 113.765 188.392 113.646 180.994C113.646 173.596 113.526 165.303 113.288 156.115C113.168 146.808 112.989 137.083 112.751 126.94C112.631 116.678 112.452 106.894 112.214 97.5866C111.975 88.16 111.677 79.6283 111.319 71.9916C111.08 64.2356 110.842 58.2694 110.603 54.093C117.166 52.7805 124.206 51.8259 131.723 51.2293C139.241 50.5133 146.221 49.9764 152.665 49.6184C160.182 49.1411 167.64 48.9024 175.038 48.9024C186.97 48.4252 198.187 49.4394 208.687 51.9452C219.188 54.3317 228.376 58.4484 236.251 64.2952C244.246 70.0228 250.57 77.4805 255.223 86.6685C259.996 95.7371 262.502 106.596 262.741 119.244C260.832 128.193 257.789 136.486 253.613 144.123C251.823 147.345 249.675 150.686 247.169 154.146C244.783 157.487 241.919 160.649 238.578 163.632C235.356 166.615 231.657 169.36 227.481 171.866C223.304 174.252 218.651 176.161 213.52 177.593C221.156 180.576 227.361 184.096 232.134 188.153C236.907 192.091 240.666 196.566 243.41 201.577C246.155 206.47 248.124 211.78 249.317 217.507C250.629 223.115 251.524 229.082 252.002 235.406C252.598 241.611 253.076 248.054 253.434 254.736C253.792 261.299 254.448 267.981 255.402 274.783C256.357 279.913 257.55 284.806 258.982 289.459C260.295 293.516 261.906 297.633 263.815 301.809C265.843 305.866 268.289 309.207 271.153 311.833L219.068 310.222ZM217.278 121.571C217.159 113.934 215.489 107.073 212.267 100.987C210.835 98.4815 208.985 95.9757 206.718 93.4699C204.57 90.9641 201.826 88.7566 198.485 86.8474C195.263 84.9383 191.326 83.387 186.672 82.1938C182.138 81.0006 176.828 80.404 170.742 80.404C166.089 80.404 160.958 81.0602 155.349 82.3728L156.065 163.274C158.213 163.632 160.361 163.931 162.509 164.169C164.657 164.289 166.625 164.348 168.415 164.348C174.143 164.348 179.214 163.752 183.629 162.558C188.044 161.365 191.922 159.754 195.263 157.726C198.604 155.697 201.468 153.43 203.855 150.924C206.241 148.419 208.27 145.793 209.94 143.049C213.758 136.725 216.205 129.565 217.278 121.571Z" fill="white"/>
</g>
<defs>
<clipPath id="clip0_3_9">
<rect width="367" height="367" fill="white"/>
</clipPath>
</defs>
</svg>
